<mxfile host="app.diagrams.net" modified="2023-11-07T00:21:37.383Z" agent="Mozilla/5.0 (Windows NT 10.0; Win64; x64) AppleWebKit/537.36 (KHTML, like Gecko) Chrome/119.0.0.0 Safari/537.36" etag="SAq31mt4ht9IlCdlnAtZ" version="22.0.8" type="device">
  <diagram name="PÃ¡gina-1" id="V8x_jqcwwK-I2rTCPCtx">
    <mxGraphModel dx="794" dy="464" grid="1" gridSize="10" guides="1" tooltips="1" connect="1" arrows="1" fold="1" page="1" pageScale="1" pageWidth="827" pageHeight="1169" math="0" shadow="0">
      <root>
        <mxCell id="0" />
        <mxCell id="1" parent="0" />
        <mxCell id="9ncmRU4kV53dVMCkjZ3E-33" value="" style="edgeStyle=orthogonalEdgeStyle;rounded=0;orthogonalLoop=1;jettySize=auto;html=1;entryX=-0.018;entryY=0.761;entryDx=0;entryDy=0;entryPerimeter=0;" edge="1" parent="1" source="9ncmRU4kV53dVMCkjZ3E-5" target="9ncmRU4kV53dVMCkjZ3E-15">
          <mxGeometry relative="1" as="geometry" />
        </mxCell>
        <mxCell id="9ncmRU4kV53dVMCkjZ3E-35" style="edgeStyle=orthogonalEdgeStyle;rounded=0;orthogonalLoop=1;jettySize=auto;html=1;entryX=0.5;entryY=0;entryDx=0;entryDy=0;" edge="1" parent="1" source="9ncmRU4kV53dVMCkjZ3E-5" target="9ncmRU4kV53dVMCkjZ3E-22">
          <mxGeometry relative="1" as="geometry" />
        </mxCell>
        <mxCell id="9ncmRU4kV53dVMCkjZ3E-5" value="Cliente&amp;nbsp;" style="swimlane;fontStyle=1;align=center;verticalAlign=top;childLayout=stackLayout;horizontal=1;startSize=26;horizontalStack=0;resizeParent=1;resizeParentMax=0;resizeLast=0;collapsible=1;marginBottom=0;whiteSpace=wrap;html=1;" vertex="1" parent="1">
          <mxGeometry x="60" y="40" width="210" height="240" as="geometry" />
        </mxCell>
        <mxCell id="9ncmRU4kV53dVMCkjZ3E-6" value="- id_cliente: int&lt;br&gt;- nome: string&lt;br&gt;- cpf: string&lt;br&gt;- data_nascimento: string&lt;br&gt;- email:string&lt;br&gt;- senha:string&lt;br&gt;- telefone:string&lt;br&gt;- fk_Plano_Mensal:int&amp;nbsp;" style="text;strokeColor=none;fillColor=none;align=left;verticalAlign=top;spacingLeft=4;spacingRight=4;overflow=hidden;rotatable=0;points=[[0,0.5],[1,0.5]];portConstraint=eastwest;whiteSpace=wrap;html=1;" vertex="1" parent="9ncmRU4kV53dVMCkjZ3E-5">
          <mxGeometry y="26" width="210" height="124" as="geometry" />
        </mxCell>
        <mxCell id="9ncmRU4kV53dVMCkjZ3E-7" value="" style="line;strokeWidth=1;fillColor=none;align=left;verticalAlign=middle;spacingTop=-1;spacingLeft=3;spacingRight=3;rotatable=0;labelPosition=right;points=[];portConstraint=eastwest;strokeColor=inherit;" vertex="1" parent="9ncmRU4kV53dVMCkjZ3E-5">
          <mxGeometry y="150" width="210" height="48" as="geometry" />
        </mxCell>
        <mxCell id="9ncmRU4kV53dVMCkjZ3E-8" value="+ cliente ( string, string, string, string,&amp;nbsp;string, string, string, int):" style="text;strokeColor=none;fillColor=none;align=left;verticalAlign=top;spacingLeft=4;spacingRight=4;overflow=hidden;rotatable=0;points=[[0,0.5],[1,0.5]];portConstraint=eastwest;whiteSpace=wrap;html=1;" vertex="1" parent="9ncmRU4kV53dVMCkjZ3E-5">
          <mxGeometry y="198" width="210" height="42" as="geometry" />
        </mxCell>
        <mxCell id="9ncmRU4kV53dVMCkjZ3E-9" value="feito&amp;nbsp;" style="swimlane;fontStyle=1;align=center;verticalAlign=top;childLayout=stackLayout;horizontal=1;startSize=26;horizontalStack=0;resizeParent=1;resizeParentMax=0;resizeLast=0;collapsible=1;marginBottom=0;whiteSpace=wrap;html=1;" vertex="1" parent="1">
          <mxGeometry x="500" y="320" width="210" height="114" as="geometry" />
        </mxCell>
        <mxCell id="9ncmRU4kV53dVMCkjZ3E-10" value="&lt;div&gt;- fk_Instrutor_id_instrutor: int&lt;/div&gt;&lt;div&gt;- fk_Ficha_de_Treino_id_ficha: int&lt;/div&gt;" style="text;strokeColor=none;fillColor=none;align=left;verticalAlign=top;spacingLeft=4;spacingRight=4;overflow=hidden;rotatable=0;points=[[0,0.5],[1,0.5]];portConstraint=eastwest;whiteSpace=wrap;html=1;" vertex="1" parent="9ncmRU4kV53dVMCkjZ3E-9">
          <mxGeometry y="26" width="210" height="54" as="geometry" />
        </mxCell>
        <mxCell id="9ncmRU4kV53dVMCkjZ3E-11" value="" style="line;strokeWidth=1;fillColor=none;align=left;verticalAlign=middle;spacingTop=-1;spacingLeft=3;spacingRight=3;rotatable=0;labelPosition=right;points=[];portConstraint=eastwest;strokeColor=inherit;" vertex="1" parent="9ncmRU4kV53dVMCkjZ3E-9">
          <mxGeometry y="80" width="210" height="8" as="geometry" />
        </mxCell>
        <mxCell id="9ncmRU4kV53dVMCkjZ3E-12" value="+ feito&amp;nbsp;( int, int ):" style="text;strokeColor=none;fillColor=none;align=left;verticalAlign=top;spacingLeft=4;spacingRight=4;overflow=hidden;rotatable=0;points=[[0,0.5],[1,0.5]];portConstraint=eastwest;whiteSpace=wrap;html=1;" vertex="1" parent="9ncmRU4kV53dVMCkjZ3E-9">
          <mxGeometry y="88" width="210" height="26" as="geometry" />
        </mxCell>
        <mxCell id="9ncmRU4kV53dVMCkjZ3E-14" value="PlanoMensal" style="swimlane;fontStyle=1;align=center;verticalAlign=top;childLayout=stackLayout;horizontal=1;startSize=26;horizontalStack=0;resizeParent=1;resizeParentMax=0;resizeLast=0;collapsible=1;marginBottom=0;whiteSpace=wrap;html=1;" vertex="1" parent="1">
          <mxGeometry x="380" y="30" width="190" height="160" as="geometry" />
        </mxCell>
        <mxCell id="9ncmRU4kV53dVMCkjZ3E-15" value="- id_plano: int&lt;br&gt;- nome: string&lt;br&gt;- descricao: string&lt;br&gt;- preco: float" style="text;strokeColor=none;fillColor=none;align=left;verticalAlign=top;spacingLeft=4;spacingRight=4;overflow=hidden;rotatable=0;points=[[0,0.5],[1,0.5]];portConstraint=eastwest;whiteSpace=wrap;html=1;" vertex="1" parent="9ncmRU4kV53dVMCkjZ3E-14">
          <mxGeometry y="26" width="190" height="74" as="geometry" />
        </mxCell>
        <mxCell id="9ncmRU4kV53dVMCkjZ3E-16" value="" style="line;strokeWidth=1;fillColor=none;align=left;verticalAlign=middle;spacingTop=-1;spacingLeft=3;spacingRight=3;rotatable=0;labelPosition=right;points=[];portConstraint=eastwest;strokeColor=inherit;" vertex="1" parent="9ncmRU4kV53dVMCkjZ3E-14">
          <mxGeometry y="100" width="190" height="8" as="geometry" />
        </mxCell>
        <mxCell id="9ncmRU4kV53dVMCkjZ3E-17" value="+ planoMensal ( int, string, string, float):" style="text;strokeColor=none;fillColor=none;align=left;verticalAlign=top;spacingLeft=4;spacingRight=4;overflow=hidden;rotatable=0;points=[[0,0.5],[1,0.5]];portConstraint=eastwest;whiteSpace=wrap;html=1;" vertex="1" parent="9ncmRU4kV53dVMCkjZ3E-14">
          <mxGeometry y="108" width="190" height="52" as="geometry" />
        </mxCell>
        <mxCell id="9ncmRU4kV53dVMCkjZ3E-39" style="edgeStyle=orthogonalEdgeStyle;rounded=0;orthogonalLoop=1;jettySize=auto;html=1;" edge="1" parent="1" source="9ncmRU4kV53dVMCkjZ3E-18">
          <mxGeometry relative="1" as="geometry">
            <mxPoint x="605" y="440" as="targetPoint" />
          </mxGeometry>
        </mxCell>
        <mxCell id="9ncmRU4kV53dVMCkjZ3E-18" value="Instrutor&amp;nbsp;" style="swimlane;fontStyle=1;align=center;verticalAlign=top;childLayout=stackLayout;horizontal=1;startSize=26;horizontalStack=0;resizeParent=1;resizeParentMax=0;resizeLast=0;collapsible=1;marginBottom=0;whiteSpace=wrap;html=1;" vertex="1" parent="1">
          <mxGeometry x="500" y="540" width="210" height="240" as="geometry" />
        </mxCell>
        <mxCell id="9ncmRU4kV53dVMCkjZ3E-19" value="- id_instrutor: int&lt;br&gt;- nome: string&lt;br&gt;- sobrenome: string&lt;br&gt;- cpf: string&lt;br&gt;- data_nascimento: string&lt;br&gt;- email:string&lt;br&gt;- senha:string&lt;br&gt;- telefone:string&lt;br&gt;-&amp;nbsp;&amp;nbsp;" style="text;strokeColor=none;fillColor=none;align=left;verticalAlign=top;spacingLeft=4;spacingRight=4;overflow=hidden;rotatable=0;points=[[0,0.5],[1,0.5]];portConstraint=eastwest;whiteSpace=wrap;html=1;" vertex="1" parent="9ncmRU4kV53dVMCkjZ3E-18">
          <mxGeometry y="26" width="210" height="124" as="geometry" />
        </mxCell>
        <mxCell id="9ncmRU4kV53dVMCkjZ3E-20" value="" style="line;strokeWidth=1;fillColor=none;align=left;verticalAlign=middle;spacingTop=-1;spacingLeft=3;spacingRight=3;rotatable=0;labelPosition=right;points=[];portConstraint=eastwest;strokeColor=inherit;" vertex="1" parent="9ncmRU4kV53dVMCkjZ3E-18">
          <mxGeometry y="150" width="210" height="48" as="geometry" />
        </mxCell>
        <mxCell id="9ncmRU4kV53dVMCkjZ3E-21" value="+ instrutor ( int, string, string, string,&amp;nbsp;string, string, string, string):" style="text;strokeColor=none;fillColor=none;align=left;verticalAlign=top;spacingLeft=4;spacingRight=4;overflow=hidden;rotatable=0;points=[[0,0.5],[1,0.5]];portConstraint=eastwest;whiteSpace=wrap;html=1;" vertex="1" parent="9ncmRU4kV53dVMCkjZ3E-18">
          <mxGeometry y="198" width="210" height="42" as="geometry" />
        </mxCell>
        <mxCell id="9ncmRU4kV53dVMCkjZ3E-22" value="Ficha_Treino" style="swimlane;fontStyle=1;align=center;verticalAlign=top;childLayout=stackLayout;horizontal=1;startSize=26;horizontalStack=0;resizeParent=1;resizeParentMax=0;resizeLast=0;collapsible=1;marginBottom=0;whiteSpace=wrap;html=1;" vertex="1" parent="1">
          <mxGeometry x="70" y="340" width="190" height="590" as="geometry" />
        </mxCell>
        <mxCell id="9ncmRU4kV53dVMCkjZ3E-23" value="&lt;div&gt;&amp;nbsp;&amp;nbsp;- id_ficha: Int&lt;/div&gt;&lt;div&gt;&amp;nbsp;- data_criacao: string&lt;/div&gt;&lt;div&gt;&amp;nbsp;- descricao: string&lt;/div&gt;&lt;div&gt;&amp;nbsp;- duracao_treino: string&lt;/div&gt;&lt;div&gt;&amp;nbsp;- ombro_lateral: string&lt;/div&gt;&lt;div&gt;&amp;nbsp;- ombro_frontal: string&lt;/div&gt;&lt;div&gt;&amp;nbsp;- supino_reto: string&lt;/div&gt;&lt;div&gt;&amp;nbsp;- supino_inclinado: string&lt;/div&gt;&lt;div&gt;&amp;nbsp;- crucifixo: string&lt;/div&gt;&lt;div&gt;&amp;nbsp;- puxador_frontal: string&lt;/div&gt;&lt;div&gt;&amp;nbsp;- puxador_costas: string&lt;/div&gt;&lt;div&gt;&amp;nbsp;- remada_baixa: string&lt;/div&gt;&lt;div&gt;&amp;nbsp;- remada_cavalo: string&lt;/div&gt;&lt;div&gt;&amp;nbsp;- triceps_corda: string&lt;/div&gt;&lt;div&gt;&amp;nbsp;- triceps_pulley: string&lt;/div&gt;&lt;div&gt;&amp;nbsp;- rosca_biceps: string&lt;/div&gt;&lt;div&gt;&amp;nbsp;- rosca_martelo: string&lt;/div&gt;&lt;div&gt;&amp;nbsp;- agachamento: string&lt;/div&gt;&lt;div&gt;&amp;nbsp;- legpress: string&lt;/div&gt;&lt;div&gt;&amp;nbsp;- cadeira_extensora: string&lt;/div&gt;&lt;div&gt;&amp;nbsp;- cadeira_flexora: string&lt;/div&gt;&lt;div&gt;&amp;nbsp;- panturrilhas: string&lt;/div&gt;&lt;div&gt;&amp;nbsp;- cardio: string&lt;/div&gt;&lt;div&gt;&amp;nbsp;- luta: string&lt;/div&gt;&lt;div&gt;&amp;nbsp;- fk_Cliente_id_cliente = Int&lt;/div&gt;" style="text;strokeColor=none;fillColor=none;align=left;verticalAlign=top;spacingLeft=4;spacingRight=4;overflow=hidden;rotatable=0;points=[[0,0.5],[1,0.5]];portConstraint=eastwest;whiteSpace=wrap;html=1;" vertex="1" parent="9ncmRU4kV53dVMCkjZ3E-22">
          <mxGeometry y="26" width="190" height="374" as="geometry" />
        </mxCell>
        <mxCell id="9ncmRU4kV53dVMCkjZ3E-24" value="" style="line;strokeWidth=1;fillColor=none;align=left;verticalAlign=middle;spacingTop=-1;spacingLeft=3;spacingRight=3;rotatable=0;labelPosition=right;points=[];portConstraint=eastwest;strokeColor=inherit;" vertex="1" parent="9ncmRU4kV53dVMCkjZ3E-22">
          <mxGeometry y="400" width="190" height="78" as="geometry" />
        </mxCell>
        <mxCell id="9ncmRU4kV53dVMCkjZ3E-25" value="+ Ficha_Treino&amp;nbsp;&lt;span style=&quot;background-color: initial;&quot;&gt;(int, string, string, string, string,&amp;nbsp;&lt;/span&gt;&lt;span style=&quot;background-color: initial;&quot;&gt;string, string, string, string, string,&amp;nbsp;&lt;/span&gt;&lt;span style=&quot;background-color: initial;&quot;&gt;string, string, string, string, string,&amp;nbsp;&lt;/span&gt;&lt;span style=&quot;background-color: initial;&quot;&gt;string, string, string, ,string, string,&amp;nbsp;&lt;/span&gt;&lt;span style=&quot;background-color: initial;&quot;&gt;string, string, string, string, int):&lt;/span&gt;&lt;span style=&quot;background-color: initial;&quot;&gt;&lt;br&gt;&lt;/span&gt;" style="text;strokeColor=none;fillColor=none;align=left;verticalAlign=top;spacingLeft=4;spacingRight=4;overflow=hidden;rotatable=0;points=[[0,0.5],[1,0.5]];portConstraint=eastwest;whiteSpace=wrap;html=1;" vertex="1" parent="9ncmRU4kV53dVMCkjZ3E-22">
          <mxGeometry y="478" width="190" height="112" as="geometry" />
        </mxCell>
        <mxCell id="9ncmRU4kV53dVMCkjZ3E-26" value="FormaPagamento" style="swimlane;fontStyle=1;align=center;verticalAlign=top;childLayout=stackLayout;horizontal=1;startSize=26;horizontalStack=0;resizeParent=1;resizeParentMax=0;resizeLast=0;collapsible=1;marginBottom=0;whiteSpace=wrap;html=1;" vertex="1" parent="1">
          <mxGeometry x="750" y="44" width="210" height="132" as="geometry" />
        </mxCell>
        <mxCell id="9ncmRU4kV53dVMCkjZ3E-27" value="&lt;div&gt;- id_forma_pagamento: Int&lt;/div&gt;&lt;div&gt;- tipo_pagamento: string&lt;/div&gt;&lt;div&gt;- fk_plano_mensal_id_plano: int&lt;/div&gt;" style="text;strokeColor=none;fillColor=none;align=left;verticalAlign=top;spacingLeft=4;spacingRight=4;overflow=hidden;rotatable=0;points=[[0,0.5],[1,0.5]];portConstraint=eastwest;whiteSpace=wrap;html=1;" vertex="1" parent="9ncmRU4kV53dVMCkjZ3E-26">
          <mxGeometry y="26" width="210" height="54" as="geometry" />
        </mxCell>
        <mxCell id="9ncmRU4kV53dVMCkjZ3E-28" value="" style="line;strokeWidth=1;fillColor=none;align=left;verticalAlign=middle;spacingTop=-1;spacingLeft=3;spacingRight=3;rotatable=0;labelPosition=right;points=[];portConstraint=eastwest;strokeColor=inherit;" vertex="1" parent="9ncmRU4kV53dVMCkjZ3E-26">
          <mxGeometry y="80" width="210" height="8" as="geometry" />
        </mxCell>
        <mxCell id="9ncmRU4kV53dVMCkjZ3E-29" value="+&amp;nbsp; FormaPagamento ( int, string, int ):" style="text;strokeColor=none;fillColor=none;align=left;verticalAlign=top;spacingLeft=4;spacingRight=4;overflow=hidden;rotatable=0;points=[[0,0.5],[1,0.5]];portConstraint=eastwest;whiteSpace=wrap;html=1;" vertex="1" parent="9ncmRU4kV53dVMCkjZ3E-26">
          <mxGeometry y="88" width="210" height="44" as="geometry" />
        </mxCell>
        <mxCell id="9ncmRU4kV53dVMCkjZ3E-34" style="edgeStyle=orthogonalEdgeStyle;rounded=0;orthogonalLoop=1;jettySize=auto;html=1;entryX=-0.003;entryY=0.654;entryDx=0;entryDy=0;entryPerimeter=0;" edge="1" parent="1" source="9ncmRU4kV53dVMCkjZ3E-14" target="9ncmRU4kV53dVMCkjZ3E-27">
          <mxGeometry relative="1" as="geometry" />
        </mxCell>
        <mxCell id="9ncmRU4kV53dVMCkjZ3E-38" style="edgeStyle=orthogonalEdgeStyle;rounded=0;orthogonalLoop=1;jettySize=auto;html=1;exitX=1;exitY=0.5;exitDx=0;exitDy=0;entryX=0;entryY=0.5;entryDx=0;entryDy=0;" edge="1" parent="1" source="9ncmRU4kV53dVMCkjZ3E-23" target="9ncmRU4kV53dVMCkjZ3E-10">
          <mxGeometry relative="1" as="geometry" />
        </mxCell>
      </root>
    </mxGraphModel>
  </diagram>
</mxfile>
